<svg width="34" height="34" viewBox="0 0 34 34" fill="none" xmlns="http://www.w3.org/2000/svg">
<path d="M12.9874 17.6133L8.10742 22.4933" stroke="#E9BC6C" stroke-width="1.75" stroke-miterlimit="10" stroke-linecap="round" stroke-linejoin="round"/>
<path d="M8.15625 17.6562L13.0362 22.5363" stroke="#E9BC6C" stroke-width="1.75" stroke-miterlimit="10" stroke-linecap="round" stroke-linejoin="round"/>
<path d="M19.3242 20.0742H19.3403" stroke="#E9BC6C" stroke-width="3" stroke-miterlimit="10" stroke-linecap="round" stroke-linejoin="round"/>
<path d="M25.627 20.0742H25.643" stroke="#E9BC6C" stroke-width="3" stroke-miterlimit="10" stroke-linecap="round" stroke-linejoin="round"/>
<path d="M22.4746 23.2439V23.2109" stroke="#E9BC6C" stroke-width="3" stroke-miterlimit="10" stroke-linecap="round" stroke-linejoin="round"/>
<path d="M22.4746 16.9392V16.9062" stroke="#E9BC6C" stroke-width="3" stroke-miterlimit="10" stroke-linecap="round" stroke-linejoin="round"/>
<path d="M12.075 32.8734H21.675C29.675 32.8734 32.875 29.6734 32.875 21.6734V18.4734C32.875 10.4734 29.675 7.27344 21.675 7.27344H12.075C4.075 7.27344 0.875 10.4734 0.875 18.4734V21.6734C0.875 29.6734 4.075 32.8734 12.075 32.8734Z" stroke="#E9BC6C" stroke-width="1.75" stroke-linecap="round" stroke-linejoin="round"/>
<path d="M18.4902 0.875L18.4742 2.491C18.4582 3.371 17.7542 4.075 16.8742 4.075H16.8262C15.9462 4.075 15.2422 4.795 15.2422 5.675C15.2422 6.555 15.9622 7.275 16.8422 7.275H18.4422" stroke="#E9BC6C" stroke-width="1.75" stroke-linecap="round" stroke-linejoin="round"/>
</svg>
