<svg width="33" height="33" viewBox="0 0 33 33" fill="none" xmlns="http://www.w3.org/2000/svg">
<path d="M30.25 16.7804V18.8719C30.25 24.2355 30.25 26.9174 28.639 28.5836C27.0282 30.25 24.4354 30.25 19.25 30.25H13.75C8.56455 30.25 5.97183 30.25 4.36091 28.5836C2.75 26.9174 2.75 24.2355 2.75 18.8719V16.7804C2.75 13.6338 2.75 12.0605 3.4639 10.7563C4.1778 9.45204 5.48206 8.64258 8.09054 7.02368L10.8405 5.31695C13.5979 3.60565 14.9766 2.75 16.5 2.75C18.0234 2.75 19.4021 3.60565 22.1595 5.31695L24.9095 7.02366C27.518 8.64258 28.8222 9.45204 29.5361 10.7563" stroke="#E9BC6C" stroke-width="1.75" stroke-linecap="round"/>
<path d="M20.625 24.75H12.375" stroke="#E9BC6C" stroke-width="1.75" stroke-linecap="round"/>
</svg>
