<svg width="586" height="2303" viewBox="0 0 586 2303" fill="none" xmlns="http://www.w3.org/2000/svg">
<path d="M529.683 1.71948C529.683 1.71948 444.019 52.6023 418.999 95.2167C361.578 193.017 596.736 243.368 565.776 345.709C527.109 473.532 263.934 447.521 154.318 558.203C82.8606 630.356 89.7776 664.414 122.5 746.719C153.403 824.449 372.742 804.51 418.999 879.219C459.489 944.615 317.014 967.476 362 1031.72C418.871 1112.94 510.485 1138.04 565.776 1219.68C652.4 1347.59 409.551 1415.27 271.419 1524.17C178.101 1597.75 32.4932 1606.68 7.54092 1699.17C-11.3616 1769.24 19.0269 1816.52 84.5389 1874.66C155.493 1937.64 262.597 1931.16 348.417 1983.16C434.238 2035.16 455.894 2083.16 392.531 2172.66C329.168 2262.15 271.419 2335.65 392.531 2283.15" stroke="#9F9F9F" stroke-width="4" stroke-dasharray="27 27"/>
</svg>
