<svg width="32" height="31" viewBox="0 0 32 31" fill="none" xmlns="http://www.w3.org/2000/svg">
<path d="M28.1262 6.29678H20.8283V3.01034C20.8283 1.23804 19.5437 0 17.6145 0H13.6727C11.6805 0 10.6561 1.26565 10.6561 3.00986V6.29678H3.35764C1.50348 6.29678 0 7.80025 0 9.65441V27.6419C0 29.496 1.50348 30.9995 3.35764 31H28.1262C29.9804 31 31.4839 29.4965 31.4839 27.6419L31.4844 9.65441C31.4844 7.80025 29.9804 6.29678 28.1262 6.29678ZM12.5936 3.01034C12.5936 1.96798 13.5187 1.93747 13.6722 1.93747H17.1287C17.7404 1.93747 18.8903 2.12347 18.8903 3.00986V6.29678H12.5936V3.01034ZM28.1262 29.062H3.35764C2.57344 29.062 1.93747 28.4266 1.93747 27.6419V18.8903H3.45354C3.7214 18.8903 3.93791 18.6738 3.93791 18.406C3.93791 18.1381 3.7214 17.9216 3.45354 17.9216H1.93747V9.65441C1.93747 8.87022 2.57344 8.23425 3.35764 8.23425H28.1262C28.9104 8.23425 29.5464 8.87022 29.5464 9.65441L29.5469 17.9216H18.8898V17.4711C18.8898 16.3823 18.0073 15.5002 16.919 15.5002H14.5649C13.4761 15.5002 12.5936 16.3823 12.5936 17.4711V17.9216H6.36023C6.09237 17.9216 5.87586 18.1381 5.87586 18.406C5.87586 18.6738 6.09237 18.8903 6.36023 18.8903H12.5936V19.8252C12.5936 20.914 13.4761 21.7965 14.5649 21.7965H16.919C18.0078 21.7965 18.8903 20.914 18.8903 19.8252L18.8898 18.8903H29.5469V27.6419C29.5469 28.4266 28.9109 29.062 28.1262 29.062ZM17.9216 17.4711L17.9211 19.8247C17.9211 20.3783 17.4726 20.8273 16.919 20.8273H14.5649C14.0113 20.8273 13.5623 20.3778 13.5623 19.8247V17.4711C13.5623 16.9175 14.0108 16.469 14.5649 16.469H16.919C17.4726 16.469 17.9216 16.917 17.9216 17.4711Z" fill="#E9BC6C"/>
</svg>
