<svg width="150" height="46" viewBox="0 0 150 46" fill="none" xmlns="http://www.w3.org/2000/svg">
<mask id="mask0_1_1725" style="mask-type:luminance" maskUnits="userSpaceOnUse" x="0" y="0" width="151" height="46">
<path d="M150.01 0H0V45.4839H150.01V0Z" fill="white"/>
</mask>
<g mask="url(#mask0_1_1725)">
<path d="M22.54 0C16.8579 0 11.3817 2.15154 7.20549 6.02314C3.02926 9.90064 0.458799 15.2086 0 20.9007L12.1229 25.9426C13.1817 25.2097 14.4404 24.8196 15.7286 24.8255H16.0874L21.4753 16.9759V16.8636C21.4812 15.1672 21.9871 13.5122 22.9282 12.1113C23.8694 10.7045 25.2046 9.61102 26.7632 8.96674C28.3221 8.32246 30.0395 8.15696 31.6924 8.49387C33.3453 8.83079 34.8629 9.64648 36.051 10.8464C37.2392 12.0463 38.051 13.5772 38.3744 15.2381C38.7038 16.899 38.5333 18.625 37.8862 20.1855C37.2392 21.7519 36.1451 23.0877 34.7452 24.0276C33.3453 24.9674 31.6924 25.4697 30.0102 25.4697H29.816L22.1459 30.9787V31.2801C22.1459 32.876 21.5635 34.4188 20.493 35.6069C19.4284 36.7949 17.9579 37.5398 16.3756 37.6934C14.7933 37.853 13.2111 37.4097 11.9288 36.4639C10.6524 35.5122 9.77006 34.1174 9.4642 32.5509L0.799956 28.9571C1.94695 33.0238 4.19978 36.6886 7.3055 39.5435C10.4112 42.3924 14.2463 44.3194 18.3814 45.0996C22.5164 45.8798 26.7869 45.4838 30.7101 43.9589C34.6334 42.4338 38.0568 39.839 40.5919 36.4698C43.1272 33.0948 44.68 29.0813 45.0682 24.8728C45.4564 20.6643 44.6741 16.4262 42.7977 12.6433C40.9213 8.86034 38.0332 5.6744 34.457 3.44601C30.8866 1.21172 26.7632 0.0295539 22.5518 0.0295539L22.534 0H22.54ZM14.1757 34.4839L11.3935 33.3252C11.7994 34.1705 12.4346 34.8799 13.2346 35.3646C14.0286 35.8493 14.9521 36.0916 15.8815 36.062C16.8108 36.0324 17.7167 35.731 18.4755 35.1931C19.2401 34.6552 19.8284 33.9045 20.1755 33.0357C20.5225 32.1668 20.6107 31.2151 20.4283 30.2989C20.246 29.3827 19.7989 28.5374 19.1519 27.8696C18.4989 27.2016 17.6696 26.7348 16.7579 26.5337C15.8462 26.3327 14.8993 26.3977 14.0286 26.7289L16.899 27.9228C17.7638 28.2833 18.452 28.9808 18.8108 29.8497C19.1695 30.7186 19.1637 31.6998 18.8108 32.5687C18.452 33.4376 17.7579 34.1291 16.8932 34.4898C16.0286 34.8503 15.0522 34.8444 14.1874 34.4898L14.1757 34.4839ZM34.7511 13.6954C35.3746 14.6352 35.7099 15.7406 35.7099 16.8695C35.7099 18.3827 35.1098 19.8309 34.0452 20.9007C32.9806 21.9706 31.5395 22.5735 30.0336 22.5735C28.9102 22.5735 27.8102 22.2425 26.875 21.61C25.9397 20.9835 25.2104 20.0909 24.7811 19.0447C24.3517 17.9985 24.2399 16.8517 24.4575 15.7406C24.6751 14.6294 25.2163 13.6127 26.0163 12.8147C26.8103 12.0167 27.822 11.4729 28.9278 11.2483C30.0336 11.0296 31.1748 11.1419 32.216 11.5734C33.2571 12.0049 34.1452 12.7379 34.7687 13.6777L34.7511 13.6954ZM26.4809 14.4875C26.0103 15.1908 25.7633 16.0242 25.7633 16.8695L25.7399 16.8576C25.7399 17.4251 25.8515 17.9867 26.0633 18.5069C26.2809 19.0328 26.5927 19.5057 26.9927 19.9076C27.3926 20.3096 27.8632 20.623 28.3868 20.8357C28.9102 21.0485 29.469 21.1607 30.0278 21.1548C30.8748 21.1548 31.6983 20.9007 32.3982 20.4337C33.0982 19.9609 33.6452 19.293 33.9688 18.5069C34.2923 17.7206 34.3747 16.8576 34.2099 16.0301C34.0452 15.1967 33.6393 14.4343 33.0395 13.8313C32.4453 13.2344 31.6807 12.8206 30.8513 12.6551C30.0219 12.4896 29.1632 12.5724 28.3868 12.8974C27.6043 13.2225 26.9398 13.7722 26.4692 14.4757L26.4809 14.4875ZM69.3022 15.5513L67.767 18.229C66.5434 17.4015 65.1083 16.9463 63.6378 16.9168C62.0555 16.9168 61.0791 17.567 61.0791 18.7433C61.0791 19.9195 62.3202 20.3746 64.2672 21.0426C64.6201 21.1607 64.9965 21.2908 65.3906 21.4327C68.1611 22.4199 69.7491 23.5724 69.7491 26.1259C69.7491 29.6133 67.0199 31.5697 63.1025 31.5697C61.0027 31.5756 58.938 31.0319 57.1088 29.9916L58.2146 27.0244C59.6673 27.7927 61.2791 28.2124 62.9201 28.242C64.9906 28.242 65.9846 27.4795 65.9846 26.3386C65.9846 25.1328 64.6966 24.7132 62.5848 24.0157C62.4143 23.9625 62.2436 23.9034 62.0673 23.8443C59.3027 22.9222 57.3911 21.7046 57.3911 18.8792C57.3911 15.6992 59.9498 13.8727 63.579 13.8727C65.6141 13.8136 67.6141 14.3988 69.2963 15.5454L69.3022 15.5513ZM81.1427 31.286V17.2418H86.3131V14.1624H72.396V17.2418H77.5664V31.286H81.1427ZM93.8244 17.2418V21.1017H100.653V24.1812H93.8244V28.2006H101.748V31.2801H90.2539V14.1565H101.748V17.2359H93.8244V17.2418ZM108.582 31.286L109.706 27.9642H116.359L117.511 31.2801H121.376L114.806 14.1624H111.229L104.841 31.286H108.582ZM110.682 25.1033L113.006 18.2526L115.382 25.1033H110.682ZM139.698 20.7824L135.034 30.7836H133.022L128.422 20.8711V31.286H125.005V14.1624H128.417L134.14 26.516L139.675 14.1624H143.116V31.2801H139.704V20.7884L139.698 20.7824ZM149.609 17.6439C149.868 17.2537 150.009 16.7928 150.009 16.3258C150.021 16.0124 149.969 15.6992 149.851 15.4037C149.734 15.108 149.562 14.848 149.339 14.6235C149.116 14.3988 148.857 14.2273 148.563 14.1092C148.274 13.9909 147.963 13.9377 147.651 13.9437C147.186 13.9437 146.727 14.0796 146.339 14.3397C145.951 14.5998 145.645 14.9722 145.469 15.4037C145.292 15.8352 145.239 16.314 145.333 16.775C145.422 17.2359 145.651 17.6616 145.975 17.9926C146.304 18.3236 146.721 18.554 147.18 18.6427C147.639 18.7373 148.116 18.69 148.545 18.5128C148.98 18.3354 149.346 18.0281 149.609 17.6439ZM146.033 17.4133C145.816 17.0942 145.698 16.71 145.692 16.3258C145.68 16.0597 145.722 15.7997 145.816 15.5573C145.91 15.3091 146.051 15.0903 146.239 14.9012C146.427 14.712 146.645 14.5643 146.886 14.4697C147.127 14.3751 147.392 14.3278 147.651 14.3337C148.039 14.3337 148.416 14.4461 148.739 14.6647C149.063 14.8835 149.315 15.1849 149.463 15.5454C149.609 15.9061 149.651 16.3021 149.58 16.6804C149.504 17.0646 149.321 17.4133 149.051 17.6911C148.78 17.969 148.433 18.158 148.051 18.2349C147.674 18.3118 147.28 18.2763 146.916 18.1285C146.557 17.9808 146.251 17.7325 146.027 17.4133H146.033ZM148.504 15.7879C148.504 15.4392 148.298 15.108 147.692 15.108H146.857V17.4606H147.233V16.5444H147.71L148.168 17.4606H148.633L148.086 16.4321C148.21 16.3789 148.316 16.2844 148.392 16.1721C148.468 16.0597 148.504 15.9239 148.504 15.7879ZM147.651 16.2075H147.245L147.233 15.4687H147.645C147.963 15.4687 148.074 15.6046 148.074 15.8233C148.074 15.8766 148.063 15.9298 148.039 15.9828C148.016 16.0301 147.986 16.0774 147.945 16.1129C147.904 16.1484 147.857 16.178 147.804 16.1957C147.751 16.2134 147.698 16.2194 147.645 16.2134L147.651 16.2075Z" fill="white"/>
</g>
</svg>
