<svg width="130" height="47" viewBox="0 0 130 47" fill="none" xmlns="http://www.w3.org/2000/svg">
<path d="M36.3969 0H3.66384C0.979295 0 0 0.989352 0 3.67042V36.3504C0 36.7712 0.0745112 37.5275 0.209696 37.8512C0.344883 38.1748 0.470487 38.4401 0.720637 38.6765C0.979295 38.9203 1.42637 39.1738 1.64139 39.2731L18.9931 46.6733C19.3124 46.8104 19.6626 46.8859 20.0297 46.8859C20.3982 46.8859 20.7483 46.8104 21.0665 46.6733L38.4192 39.2721C38.6342 39.1728 39.0814 38.9192 39.3399 38.6754C39.5902 38.4392 39.7158 38.1748 39.851 37.85C39.9861 37.5264 40.0607 36.7701 40.0607 36.3492V3.67042C40.0607 0.989352 39.0814 0 36.3969 0ZM22.1204 5.88002H24.8603V23.8578H22.1204V5.88002ZM22.2619 28.156H23.8544V33.6045H22.3545V30.4747L20.9634 32.6077H20.9325L19.5487 30.4909V33.6045H18.0722V28.156H19.6647L20.9622 30.2654L22.2619 28.156ZM13.2546 5.88002H17.556C19.784 5.88002 20.8845 6.98373 20.8845 9.21921V13.9966C20.8845 16.231 19.784 17.3347 17.556 17.3347H15.9944V23.8578H13.2546V5.88002ZM5.78636 5.88002H11.8803V8.3712H8.52626V13.4571H11.7516V15.9484H8.52626V21.3676H11.9314V23.8588H5.78636V5.88002ZM10.9777 32.8785C10.6871 33.1169 10.3454 33.3176 9.95155 33.4783C9.5577 33.6391 9.11277 33.72 8.61461 33.72C8.1899 33.72 7.79712 33.6498 7.43733 33.5108C7.07648 33.3704 6.76565 33.1763 6.50061 32.927C6.23663 32.6778 6.02906 32.3812 5.87896 32.0358C5.72888 31.6916 5.6533 31.313 5.6533 30.9041V30.888C5.6533 30.4886 5.72675 30.1165 5.87471 29.7745C6.02372 29.4324 6.22598 29.1325 6.48463 28.8758C6.74436 28.6189 7.05305 28.4183 7.41284 28.2726C7.77262 28.1281 8.16222 28.0547 8.58161 28.0547C9.06381 28.0547 9.47894 28.1248 9.82915 28.264C10.1783 28.4042 10.4987 28.5985 10.7893 28.8477L9.90366 29.9136C9.70673 29.7475 9.50555 29.6201 9.30118 29.5328C9.09681 29.4442 8.85943 29.4001 8.59013 29.4001C8.3932 29.4001 8.21117 29.4389 8.04194 29.5167C7.87375 29.5943 7.72792 29.7011 7.60338 29.836C7.47883 29.9708 7.38091 30.1294 7.30853 30.3106C7.23615 30.4919 7.19995 30.6872 7.19995 30.8944V30.9106C7.19995 31.1285 7.23615 31.3313 7.30853 31.5169C7.38091 31.7036 7.48415 31.8632 7.61509 31.9959C7.74708 32.1286 7.90249 32.2323 8.08132 32.3078C8.26014 32.3821 8.45813 32.4209 8.67635 32.4209C9.02868 32.4209 9.3182 32.3466 9.54707 32.1956V31.5342H8.47623V30.4251H10.9777V32.8785ZM11.4567 33.6045L13.774 28.1163H15.2269L17.5432 33.6045H15.9275L15.5304 32.6314H13.4323L13.0438 33.6045H11.4567ZM26.6422 39.6346C26.6346 39.6519 26.6241 39.6669 26.6114 39.6798C26.5986 39.6928 26.5836 39.7036 26.5666 39.7101L20.2352 42.4106C20.1671 42.4397 20.0926 42.4559 20.0148 42.4559C19.9372 42.4559 19.8627 42.4397 19.7945 42.4106L13.5121 39.7101C13.4951 39.7025 13.4802 39.6918 13.4674 39.6798C13.4547 39.6669 13.444 39.6519 13.4366 39.6346C13.4291 39.6173 13.4259 39.599 13.4259 39.5785C13.4259 39.5591 13.4302 39.5397 13.4366 39.5224C13.444 39.5051 13.4547 39.49 13.4674 39.4771C13.4802 39.4642 13.4951 39.4533 13.5121 39.4469C13.5292 39.4393 13.5473 39.436 13.5675 39.436H26.5113C26.5304 39.436 26.5496 39.4404 26.5666 39.4469C26.5836 39.4543 26.5986 39.4642 26.6114 39.4771C26.6241 39.49 26.6346 39.5051 26.6422 39.5224C26.6497 39.5397 26.6527 39.5579 26.6527 39.5785C26.6539 39.5979 26.6497 39.6173 26.6422 39.6346ZM29.2767 33.6045H24.8624V28.156H29.2372V29.441H26.3537V30.2665H28.9648V31.4575H26.3537V32.3217H29.2755L29.2767 33.6045ZM26.3079 20.6729V9.06386C26.3079 6.82945 27.4097 5.72465 29.6364 5.72465H30.9681C33.1959 5.72465 34.271 6.80355 34.271 9.03796V12.7105H31.5834V9.19225C31.5834 8.47261 31.2502 8.13923 30.5594 8.13923H30.0985C29.381 8.13923 29.0489 8.47261 29.0489 9.19225V20.5444C29.0489 21.2641 29.3821 21.5975 30.0985 21.5975H30.6105C31.3013 21.5975 31.6345 21.2641 31.6345 20.5444V16.4867H34.3233V20.6729C34.3233 22.9072 33.2226 24.0121 30.9948 24.0121H29.6375C27.4097 24.0121 26.3079 22.9083 26.3079 20.6729ZM34.4266 31.928C34.4266 32.2085 34.3732 32.4576 34.2668 32.6756C34.1605 32.8935 34.0114 33.0791 33.8198 33.2324C33.6282 33.3855 33.3982 33.502 33.1279 33.583C32.8585 33.6639 32.5584 33.7038 32.2262 33.7038C31.7388 33.7038 31.2767 33.6294 30.8392 33.4783C30.4017 33.3273 30.0144 33.1017 29.6779 32.8007L30.5167 31.7964C31.0607 32.2323 31.6482 32.4502 32.2805 32.4502C32.4828 32.4502 32.6372 32.4177 32.7426 32.353C32.849 32.2884 32.9022 32.1965 32.9022 32.0769V32.0607C32.9022 32.0035 32.8884 31.9527 32.8629 31.9096C32.8373 31.8654 32.7893 31.8232 32.7192 31.7812C32.6488 31.7392 32.5552 31.6992 32.4403 31.6604C32.3232 31.6215 32.1721 31.5817 31.9856 31.5395C31.6951 31.4716 31.4258 31.3982 31.1778 31.3183C30.9298 31.2375 30.7126 31.1339 30.5285 31.0066C30.3444 30.8792 30.1995 30.7206 30.0931 30.5318C29.9867 30.343 29.9334 30.1068 29.9334 29.8274V29.8111C29.9334 29.5576 29.9814 29.3235 30.0771 29.1099C30.173 28.8962 30.3135 28.7128 30.4965 28.5575C30.6797 28.4021 30.9021 28.2813 31.1608 28.195C31.4204 28.1096 31.7132 28.0666 32.039 28.0666C32.5051 28.0666 32.9214 28.1269 33.2865 28.25C33.6515 28.3719 33.9815 28.5521 34.2775 28.7916L33.5238 29.8575C33.2758 29.6806 33.0203 29.5479 32.7584 29.4562C32.4967 29.3655 32.2443 29.3191 32.0017 29.3191C31.8207 29.3191 31.6835 29.3537 31.5939 29.4206C31.5035 29.4874 31.4578 29.5716 31.4578 29.6698V29.6859C31.4578 29.7485 31.4715 29.8025 31.5003 29.8489C31.5291 29.8953 31.5781 29.9385 31.6482 29.9773C31.7186 30.0161 31.8143 30.056 31.9357 30.0938C32.0571 30.1326 32.2113 30.1726 32.3976 30.2146C32.7085 30.2827 32.9895 30.3614 33.2407 30.4519C33.4919 30.5426 33.7049 30.6537 33.8825 30.7822C34.0583 30.9116 34.1934 31.0681 34.2861 31.2537C34.3797 31.4381 34.4266 31.6572 34.4266 31.9118V31.928Z" fill="white"/>
<path d="M18.1444 13.8705V9.34989C18.1444 8.63026 17.8112 8.29688 17.1203 8.29688H15.9941V14.9235H17.1203C17.8123 14.9235 18.1444 14.5901 18.1444 13.8705Z" fill="white"/>
<path d="M14.4881 29.9062L13.875 31.4555H15.0949L14.4881 29.9062Z" fill="white"/>
<path d="M67.8745 23.9604C67.5573 23.4005 67.1389 22.9365 66.6227 22.5664C66.1054 22.1975 65.4466 21.8459 64.6482 21.5123L61.509 20.2253C61.1568 20.0817 60.8619 19.9339 60.6278 19.7786C60.3925 19.6243 60.2158 19.4517 60.0988 19.2607C59.9806 19.0708 59.8986 18.8378 59.8517 18.5638C59.8039 18.2897 59.7816 17.9509 59.7816 17.5452C59.7816 16.7113 59.9221 16.1039 60.204 15.7219C60.3457 15.531 60.533 15.3703 60.7683 15.2396C61.0035 15.1092 61.2973 15.0433 61.6497 15.0433C62.0254 15.0433 62.3255 15.1027 62.5491 15.2223C62.7727 15.3421 62.9547 15.4964 63.0962 15.6875C63.308 15.9733 63.4315 16.3131 63.4666 16.7058C63.5018 17.0985 63.5199 17.5226 63.5199 17.9746H68.527C68.527 16.6876 68.3738 15.5439 68.0682 14.5438C67.7628 13.5425 67.2689 12.7204 66.5865 12.0774C65.4582 11.005 63.8125 10.4688 61.6497 10.4688C60.6852 10.4688 59.8273 10.6058 59.0748 10.8798C58.3222 11.1538 57.6409 11.553 57.0299 12.0774C56.2773 12.7452 55.7131 13.5555 55.3374 14.5082C54.9605 15.4619 54.7733 16.5343 54.7733 17.7255C54.7733 18.7267 54.8435 19.5726 54.9851 20.2631C55.1256 20.9546 55.3374 21.5384 55.6195 22.0142C55.9016 22.4909 56.272 22.8956 56.7308 23.229C57.1895 23.5635 57.7356 23.8611 58.3712 24.1222L61.5453 25.445C61.9913 25.6359 62.3564 25.8151 62.6385 25.9813C62.9206 26.1484 63.1442 26.3567 63.308 26.6069C63.4719 26.8573 63.5838 27.1788 63.6433 27.5715C63.702 27.9642 63.7317 28.4595 63.7317 29.055C63.7317 30.08 63.5666 30.7942 63.2378 31.1999C62.9078 31.6292 62.3798 31.8428 61.6507 31.8428C61.2505 31.8428 60.928 31.7835 60.681 31.6638C60.4341 31.5452 60.2402 31.4016 60.0988 31.2344C59.8636 30.9722 59.7166 30.6507 59.6581 30.2688C59.5995 29.8879 59.5696 29.4347 59.5696 28.9104H54.5625C54.5625 30.2213 54.686 31.3358 54.9329 32.2528C55.1799 33.17 55.6088 33.9392 56.2198 34.5584C56.784 35.1302 57.5185 35.5834 58.4243 35.9168C59.3291 36.2501 60.4053 36.4175 61.6507 36.4175C62.8727 36.4175 63.9488 36.2383 64.877 35.8812C65.8053 35.5241 66.5526 35.0709 67.1166 34.5229C67.7745 33.8799 68.2098 33.0987 68.4216 32.1817C68.6334 31.2645 68.7388 30.1619 68.7388 28.8749C68.7388 27.7312 68.674 26.7655 68.5452 25.9801C68.4153 25.1936 68.1917 24.5204 67.8745 23.9604Z" fill="white"/>
<path d="M69.4082 15.2632H73.6404V36.1377H78.6477V15.2632H82.88V10.6875H69.4082V15.2632Z" fill="white"/>
<path d="M98.1839 17.1729C98.0657 16.3033 97.8837 15.5232 97.6368 14.8317C97.3898 14.1412 97.0428 13.5219 96.5968 12.9727C96.0327 12.2574 95.3152 11.65 94.4456 11.1494C93.5759 10.6488 92.4581 10.3984 91.0957 10.3984C89.7322 10.3984 88.6155 10.6488 87.7459 11.1494C86.8762 11.65 86.1587 12.2574 85.5947 12.9727C85.1475 13.5208 84.8015 14.1401 84.5546 14.8317C84.3076 15.5232 84.1193 16.3033 83.9904 17.1729C83.8606 18.0435 83.784 18.9962 83.7616 20.0319C83.7382 21.0687 83.7266 22.1941 83.7266 23.41C83.7266 24.6248 83.7382 25.7512 83.7616 26.788C83.7851 27.8248 83.8617 28.7775 83.9904 29.6472C84.1193 30.5178 84.3076 31.2978 84.5546 31.9883C84.8015 32.68 85.1486 33.2992 85.5947 33.8472C86.1587 34.5626 86.8762 35.17 87.7459 35.6706C88.6155 36.1713 89.7322 36.4215 91.0957 36.4215C92.4593 36.4215 93.5759 36.1713 94.4456 35.6706C95.3152 35.17 96.0327 34.5626 96.5968 33.8472C97.0428 33.2992 97.3909 32.68 97.6368 31.9883C97.8837 31.2978 98.0657 30.5178 98.1839 29.6472C98.3009 28.7775 98.3776 27.8238 98.4127 26.788C98.4479 25.7512 98.466 24.626 98.466 23.41C98.466 22.1951 98.4479 21.0687 98.4127 20.0319C98.3776 18.9962 98.3009 18.0435 98.1839 17.1729ZM93.4406 25.6983C93.429 26.4611 93.3992 27.1765 93.3523 27.8432C93.3045 28.5111 93.2341 29.1065 93.1405 29.6299C93.0468 30.1542 92.9287 30.5588 92.7881 30.8447C92.6466 31.1307 92.4465 31.3691 92.1889 31.5601C91.9303 31.751 91.5662 31.8459 91.0957 31.8459C90.6252 31.8459 90.2612 31.751 90.0025 31.5601C89.7438 31.3691 89.5437 31.1307 89.4032 30.8447C89.2617 30.5588 89.1445 30.1542 89.0509 29.6299C88.9562 29.1056 88.8858 28.51 88.8391 27.8432C88.7911 27.1765 88.7625 26.4611 88.7507 25.6983C88.7379 24.9356 88.7326 24.1739 88.7326 23.411C88.7326 22.6482 88.7379 21.8866 88.7507 21.1238C88.7625 20.3611 88.7911 19.6468 88.8391 18.9789C88.8858 18.3122 88.9562 17.7166 89.0509 17.1923C89.1445 16.668 89.2627 16.2634 89.4032 15.9775C89.5437 15.6915 89.7438 15.4531 90.0025 15.2621C90.2612 15.0723 90.6252 14.9762 91.0957 14.9762C91.5662 14.9762 91.9303 15.0723 92.1889 15.2621C92.4476 15.4531 92.6476 15.6915 92.7881 15.9775C92.9287 16.2634 93.0468 16.669 93.1405 17.1923C93.2341 17.7166 93.3045 18.3122 93.3523 18.9789C93.3992 19.6468 93.4278 20.3611 93.4406 21.1238C93.4524 21.8866 93.4587 22.6494 93.4587 23.411C93.4587 24.1728 93.4524 24.9356 93.4406 25.6983Z" fill="white"/>
<path d="M113.586 23.8232C113.962 23.3354 114.251 22.8047 114.451 22.2328C114.65 21.661 114.786 21.0589 114.856 20.4278C114.926 19.7966 114.962 19.1354 114.962 18.4437C114.962 17.2289 114.856 16.1381 114.644 15.1736C114.433 14.209 114.062 13.3988 113.533 12.7428C113.004 12.0879 112.287 11.5808 111.382 11.2237C110.477 10.8666 109.342 10.6875 107.979 10.6875H100.82V36.1377H105.827V26.2366H107.485L110.553 36.1377H115.772L112.104 25.1285C112.717 24.7467 113.209 24.3119 113.586 23.8232ZM109.901 19.5517C109.866 19.9337 109.783 20.2789 109.654 20.5886C109.524 20.8982 109.325 21.155 109.055 21.3567C108.785 21.5596 108.414 21.661 107.944 21.661H105.827V15.2632H107.944C108.414 15.2632 108.783 15.3592 109.055 15.549C109.325 15.7399 109.525 15.9904 109.654 16.3C109.783 16.6096 109.866 16.9559 109.901 17.3368C109.936 17.7186 109.954 18.0877 109.954 18.4449C109.953 18.8009 109.936 19.1709 109.901 19.5517Z" fill="white"/>
<path d="M129.337 15.2632V10.6875H117.77V36.1377H129.337V31.5621H122.778V25.4857H128.419V20.91H122.778V15.2632H129.337Z" fill="white"/>
</svg>
